<svg width="15" height="21" xmlns="http://www.w3.org/2000/svg" xmlns:xlink="http://www.w3.org/1999/xlink" xmlns:svgjs="http://svgjs.com/svgjs" viewBox="0.15 0 14.7 21" fill="#4d4d4d"><svg xmlns="http://www.w3.org/2000/svg" width="15" height="21" viewBox="1.999 1 14 20"><path paint-order="stroke fill markers" fill-rule="evenodd" d="M9 11c-1.66 0-3 1.34-3 3s1.34 3 3 3c1.658 0 3-1.34 3-3s-1.342-3-3-3zm0 8c-2.76 0-5-2.24-5-5s2.24-5 5-5 5 2.24 5 5-2.24 5-5 5zM9 3c1.1 0 2 .9 2 2s-.9 2-2 2a2 2 0 1 1 0-4zm5-2H4c-1.1 0-2 .9-2 2v16c0 1.1.9 1.99 2 1.99L14 21c1.1 0 2-.9 2-2V3c0-1.1-.9-2-2-2z"/></svg></svg>