<svg width="23" height="13" xmlns="http://www.w3.org/2000/svg" xmlns:xlink="http://www.w3.org/1999/xlink" xmlns:svgjs="http://svgjs.com/svgjs" viewBox="0 0.227 23 12.546" fill="#4d4d4d"><svg xmlns="http://www.w3.org/2000/svg" width="23" height="13" viewBox="2 2 22 12"><path paint-order="stroke fill markers" fill-rule="evenodd" d="M20.5 8c-.83 0-1.5-.67-1.5-1.5S19.67 5 20.5 5s1.5.67 1.5 1.5S21.33 8 20.5 8zm-4 3c-.832 0-1.5-.67-1.5-1.5S15.668 8 16.5 8c.83 0 1.498.67 1.498 1.5S17.33 11 16.499 11zM12 9H9v3H7V9H3.999V7h3V4H9v3h3v2zm10-7H3.999c-1.1 0-2 .9-2 2v8c0 1.1.9 2 2 2h18c1.1 0 2-.9 2-2V4c0-1.1-.9-2-2-2z"/></svg></svg>