<svg width="21" height="15" xmlns="http://www.w3.org/2000/svg" xmlns:xlink="http://www.w3.org/1999/xlink" xmlns:svgjs="http://svgjs.com/svgjs" viewBox="0 0.149 21 14.701" fill="#4d4d4d"><svg xmlns="http://www.w3.org/2000/svg" width="21" height="15" viewBox="1.001 1 19.999 14"><path paint-order="stroke fill markers" fill-rule="evenodd" d="M18 6h-2.002V4H18v2zm0 3h-2.002V7H18v2zm-3-3h-2V4h2v2zm0 3h-2V7h2v2zm0 4H7v-2h8v2zM6 6H4.002V4H6v2zm0 3H4.002V7H6v2zm1-2h2v2H7V7zm0-3h2v2H7V4zm3 3h2v2h-2V7zm0-3h2v2h-2V4zm9-3H3c-1.1 0-1.99.9-1.99 2l-.009 10c0 1.1.898 2 1.998 2h16c1.102 0 2-.9 2-2V3c0-1.1-.898-2-2-2z"/></svg></svg>