<svg width="19" height="19" xmlns="http://www.w3.org/2000/svg" xmlns:xlink="http://www.w3.org/1999/xlink" xmlns:svgjs="http://svgjs.com/svgjs" viewBox="0.001 0 18.999 19" fill="#4d4d4d"><svg xmlns="http://www.w3.org/2000/svg" width="19" height="19" viewBox="1.001 1 17.998 18"><path paint-order="stroke fill markers" fill-rule="evenodd" d="M15 15H5V5h10v10zm4-6V7h-2V5c0-1.1-.9-2-2-2h-2V1h-2.002v2H8.999V1H7v2H5c-1.1 0-2 .9-2 2v2H1v2h1.998v2H1.001v2h1.998v2c0 1.1.9 2 2 2H7v2h2v-2h1.998v2H13v-2h2c1.1 0 2-.9 2-2v-2h2v-2h-2V9h2zm-8.002 2H8.999V9h1.999v2zM13 7H7v6h6V7z"/></svg></svg>