<svg width="14" height="23" xmlns="http://www.w3.org/2000/svg" xmlns:xlink="http://www.w3.org/1999/xlink" xmlns:svgjs="http://svgjs.com/svgjs" viewBox="0.206 0 13.588 23" fill="#4d4d4d"><svg xmlns="http://www.w3.org/2000/svg" width="14" height="23" viewBox="1.002 1 12.998 22"><path paint-order="stroke fill markers" fill-rule="evenodd" d="M12 18H3V4h9v14zm-4.5 4c-.83 0-1.5-.67-1.5-1.5S6.67 19 7.5 19s1.5.67 1.5 1.5S8.33 22 7.5 22zm4-21H3.498a2.499 2.499 0 0 0-2.497 2.5v17c0 1.38 1.117 2.5 2.497 2.5h8a2.5 2.5 0 0 0 2.5-2.5v-17A2.5 2.5 0 0 0 11.5 1z"/></svg></svg>