<svg width="17" height="25" xmlns="http://www.w3.org/2000/svg" xmlns:xlink="http://www.w3.org/1999/xlink" xmlns:svgjs="http://svgjs.com/svgjs" viewBox="0.167 0 16.667 25" fill="#4d4d4d"><svg xmlns="http://www.w3.org/2000/svg" width="17" height="25" viewBox="1.999 1 16 24"><path paint-order="stroke fill markers" fill-rule="evenodd" d="M4 13c0-3.31 2.69-6 5.998-6a6.005 6.005 0 0 1 6.001 6c0 3.31-2.69 6-6.001 6A6.005 6.005 0 0 1 4 13zm14 0c0-2.54-1.19-4.81-3.041-6.27L13.999 1H6l-.95 5.73A7.939 7.939 0 0 0 2 13c0 2.55 1.189 4.81 3.05 6.27L6 25h8l.959-5.73a7.973 7.973 0 0 0 3.04-6.27z"/></svg></svg>