<svg width="21" height="20" xmlns="http://www.w3.org/2000/svg" xmlns:xlink="http://www.w3.org/1999/xlink" xmlns:svgjs="http://svgjs.com/svgjs" viewBox="0 0.366 21 19.268">
	<svg xmlns="http://www.w3.org/2000/svg" width="21" height="20" viewBox="2 2 20 18.35">
		<path paint-order="stroke fill markers" fill-rule="evenodd" d="M16.5 2c-1.74 0-3.412.81-4.502 2.09C10.91 2.81 9.238 2 7.498 2 4.42 2 2 4.42 2 7.5c0 3.78 3.4 6.86 8.55 11.54l1.448 1.31 1.451-1.32C18.6 14.36 22 11.28 22 7.5 22 4.42 19.58 2 16.5 2zm-4.4 15.55l-.102.1-.1-.1C7.142 13.24 4 10.39 4 7.5 4 5.5 5.5 4 7.499 4c1.54 0 3.04.99 3.57 2.36h1.871C13.46 4.99 14.958 4 16.5 4c2 0 3.499 1.5 3.499 3.5 0 2.89-3.14 5.74-7.899 10.05z"/>
	</svg>
</svg>