<svg width="17" height="17" xmlns="http://www.w3.org/2000/svg" xmlns:xlink="http://www.w3.org/1999/xlink" xmlns:svgjs="http://svgjs.com/svgjs" viewBox="0.001 0 16.999 17" fill="#4d4d4d"><svg xmlns="http://www.w3.org/2000/svg" width="17" height="17" viewBox="1.001 2 15.999 16"><path paint-order="stroke fill markers" fill-rule="evenodd" d="M9 11C6.33 11 1 12.34 1 15v3h16v-3c0-2.66-5.331-4-8.001-4zm0-9C6.788 2 5 3.79 5 6s1.788 4 4 4a4 4 0 0 0 4-4 4 4 0 0 0-4-4zm0 10.9c2.97 0 6.099 1.46 6.099 2.1v1.1h-12.2V15c0-.64 3.131-2.1 6.1-2.1zm0-9a2.1 2.1 0 1 1 0 4.201 2.1 2.1 0 0 1 0-4.2z"/></svg></svg>