<svg width="21" height="20" xmlns="http://www.w3.org/2000/svg" xmlns:xlink="http://www.w3.org/1999/xlink" xmlns:svgjs="http://svgjs.com/svgjs" viewBox="0 0.366 21 19.267" fill="#4d4d4d"><svg xmlns="http://www.w3.org/2000/svg" width="21" height="20" viewBox="1.001 1 20 18.35"><path paint-order="stroke fill markers" fill-rule="evenodd" d="M11.101 16.55l-.1.1-.102-.1C6.141 12.24 3.001 9.39 3.001 6.5 3 4.5 4.5 3 6.499 3c1.542 0 3.04.99 3.57 2.36h1.873C12.459 3.99 13.96 3 15.5 3c2 0 3.5 1.5 3.5 3.5 0 2.89-3.14 5.74-7.899 10.05zM15.501 1c-1.741 0-3.411.81-4.5 2.09C9.91 1.81 8.238 1 6.498 1 3.421 1 1.001 3.42 1.001 6.5c0 3.78 3.4 6.86 8.55 11.54L11 19.35l1.449-1.32c5.15-4.67 8.551-7.75 8.551-11.53 0-3.08-2.421-5.5-5.5-5.5z"/></svg></svg>