<svg width="17" height="17" xmlns="http://www.w3.org/2000/svg" xmlns:xlink="http://www.w3.org/1999/xlink" xmlns:svgjs="http://svgjs.com/svgjs" viewBox="0 0 16.999 17" fill="#666"><svg xmlns="http://www.w3.org/2000/svg" width="17" height="17" viewBox="1 1 15.999 16"><path paint-order="stroke fill markers" fill-rule="evenodd" d="M12.015 3H5.93c-.885 0-1.659.277-2.156.775C3.276 4.272 3 5.046 3 5.93v6.083c0 .885.276 1.659.83 2.212.553.498 1.272.774 2.155.774h6.03c.884 0 1.659-.276 2.155-.774.554-.498.83-1.272.83-2.156V5.986c0-.884-.276-1.603-.774-2.156-.552-.553-1.272-.83-2.211-.83zm4.984 9.309c0 1.383-.482 2.586-1.327 3.428C14.827 16.58 13.619 17 12.29 17H5.709c-1.328 0-2.536-.42-3.381-1.263C1.422 14.895 1 13.692 1 12.31V5.692C1 2.925 2.872 1 5.71 1h6.642c1.389 0 2.535.481 3.38 1.324.848.842 1.268 1.984 1.268 3.368v6.617zM9 11a2 2 0 1 0 .002-4A2 2 0 0 0 9 11zm-.028 2C6.752 13 5 11.177 5 9c0-2.235 1.81-4 3.97-4S13 6.765 13 9c0 2.235-1.812 4-4.03 4zM13 6c-.564 0-1-.437-1-1 0-.562.436-1 1-1 .562 0 .999.438.999 1 0 .563-.437 1-1 1z"/></svg></svg>