<svg width="15" height="13" xmlns="http://www.w3.org/2000/svg" xmlns:xlink="http://www.w3.org/1999/xlink" xmlns:svgjs="http://svgjs.com/svgjs" viewBox="0 0.2 15 12.6" fill="#666"><svg xmlns="http://www.w3.org/2000/svg" width="15" height="13" viewBox="1 1.143 14.001 11.76"><path paint-order="stroke fill markers" fill-rule="evenodd" d="M15 2.533A5.584 5.584 0 0 1 13.353 3a2.967 2.967 0 0 0 1.264-1.642c-.563.345-1.18.59-1.823.72a2.828 2.828 0 0 0-2.102-.935c-.767.005-1.5.32-2.039.877a2.982 2.982 0 0 0-.834 2.09c0 .229.026.456.076.678a8.064 8.064 0 0 1-5.92-3.102c-.763 1.356-.376 3.08.888 3.963a2.784 2.784 0 0 1-1.3-.372v.038c-.007 1.406.956 2.622 2.304 2.91a2.791 2.791 0 0 1-1.296.052 2.892 2.892 0 0 0 2.683 2.062 5.65 5.65 0 0 1-3.567 1.27.894.894 0 0 1-.686-.042 7.935 7.935 0 0 0 4.4 1.336 8.096 8.096 0 0 0 5.817-2.48 8.425 8.425 0 0 0 2.357-5.965c0-.129 0-.257-.01-.384a5.926 5.926 0 0 0 1.437-1.54z"/></svg></svg>